<?xml version="1.0" encoding="utf-8"?>
<!DOCTYPE svg PUBLIC "-//W3C//DTD SVG 1.1//EN" "http://www.w3.org/Graphics/SVG/1.1/DTD/svg11.dtd">
<svg version="1.1" id="Layer_1" xmlns="http://www.w3.org/2000/svg" xmlns:xlink="http://www.w3.org/1999/xlink" x="0px" y="0px"
	 width="841.9px" height="595.3px" viewBox="0 0 841.9 595.3" enable-background="new 0 0 841.9 595.3" xml:space="preserve">
<g>
	<linearGradient id="SVGID_1_" gradientUnits="userSpaceOnUse" x1="420.945" y1="514.5969" x2="420.945" y2="5.9808">
		<stop  offset="0" style="stop-color:#FFF1DB"/>
		<stop  offset="0.5" style="stop-color:#FDDECE"/>
		<stop  offset="0.5772" style="stop-color:#F3D9CF"/>
		<stop  offset="0.6995" style="stop-color:#DCCED1"/>
		<stop  offset="0.8506" style="stop-color:#B9BDD4"/>
		<stop  offset="1" style="stop-color:#8EAAD9"/>
	</linearGradient>
		<polygon fill="#3A5048" points="0,595.3 0,539.2 44.1,424 58.1,563 98.6,465 113.1,568 138.1,503 151.1,562 197.1,462 206.1,571 
		250.4,492 259.1,589 294.1,522 302.1,590 320.1,559 327.6,595.3 	"/>
	<polygon fill="#3A5048" points="841.9,542.6 826.7,503 813.7,562 767.7,462 758.7,571 714.4,492 705.7,589 670.7,522 662.7,590 
		644.7,559 637.2,595.3 841.9,595.3 	"/>
</g>
</svg>