<?xml version="1.0" encoding="UTF-8"?>
<svg viewBox="0 0 1024 768" xmlns="http://www.w3.org/2000/svg">
 <path d="m-98.429-4.8575h1166.2v775.26h-1166.2z" fill="#729fcf"/>
 <path d="m228.37 249.06c-25.802 0-46.896 14.138-48.415 31.951-4.2443-2.261-9.5236-3.6159-15.263-3.6159-13.952 0-25.271 7.9312-25.271 17.707 0 9.6229 10.964 17.442 24.614 17.685-1.5439 2.8715-2.377 5.9995-2.377 9.2479 0 14.468 16.758 26.21 37.406 26.21 10.276 0 19.571-2.9208 26.334-7.6262 8.6073 4.7596 19.468 7.6262 31.276 7.6262 23.092 0 42.599-10.877 48.634-25.706 5.9116 13.238 23.547 22.857 44.381 22.857 25.671 0 46.507-14.6 46.507-32.587s-20.836-32.587-46.507-32.587c-0.27451 0-0.53976 0.01862-0.81317 0.02191-3.7382-12.939-20.063-22.682-39.627-22.682-14.995 0-28.078 5.7426-35.06 14.244-6.6324-13.246-24.658-22.747-45.819-22.747z" fill="#fff" stroke="#000" stroke-linecap="round" stroke-linejoin="round" stroke-miterlimit="5" stroke-opacity=".95161" stroke-width="4"/>
 <path d="m561.34 114.63c-20.66 0-38.169 9.4389-44.224 22.506-3.7096-6.5505-12.824-11.176-23.488-11.176-13.952 0-25.302 7.9312-25.302 17.707 0 1.008 0.1441 1.9963 0.37531 2.9585-15.802 5.609-26.647 17.077-26.647 30.33 0 18.769 21.753 34.011 48.54 34.011 16.26 0 30.632-5.6354 39.439-14.244 0.88165 0.04561 1.762 0.06044 2.6584 0.06574 4.7385 10.667 18.972 18.43 35.748 18.43 13.641 0 25.554-5.1268 32.089-12.776 0.41779 0.00717 0.83081 0.02191 1.251 0.02191 27.903 0 50.573-15.862 50.573-35.414 0-19.456-22.451-35.282-50.167-35.436-7.8944-10.119-23.238-16.984-40.846-16.984z" fill="#fff" stroke="#000" stroke-linecap="round" stroke-linejoin="round" stroke-miterlimit="5" stroke-opacity=".95161" stroke-width="4"/>
 <path d="m63.006 30.622c-20.649 0-37.406 11.742-37.406 26.21 0 8.8394 6.2496 16.64 15.826 21.389-3.5633 3.0526-5.7235 6.95-5.7235 11.198 0 9.7757 11.319 17.707 25.271 17.707 7.0234 0 13.37-2.0155 17.952-5.2595 8.474 9.9362 23.981 16.589 41.691 16.589 16.863 0 31.742-6.031 40.44-15.187 2.5728 0.44471 5.2335 0.7201 7.9441 0.87658 7.3707 6.9598 19.186 11.483 32.496 11.483 10.416 0 19.945-2.7601 27.116-7.2976 6.888 2.827 14.903 4.4486 23.457 4.4486 25.671 0 46.476-14.6 46.476-32.587s-20.805-32.565-46.476-32.565c-12.2 0-23.322 3.2869-31.62 8.6782-7.242-13.353-25.67-22.857-47.258-22.857-18.621 0-34.891 7.0637-43.661 17.575-2.8887-0.37612-5.8701-0.56977-8.9136-0.56977-7.326 0-14.256 1.1381-20.486 3.1776-2.2579-12.958-18.024-23.01-37.125-23.01z" fill="#fff" stroke="#000" stroke-linecap="round" stroke-linejoin="round" stroke-miterlimit="5" stroke-opacity=".95161" stroke-width="4"/>
 <path d="m870.79 32.246c-20.648 0-37.406 11.742-37.406 26.21 0 2.4977 0.50598 4.921 1.4387 7.2099-25.867 1.5493-46.195 16.759-46.195 35.282 0 19.551 22.639 35.414 50.542 35.414 7.4067 0 14.427-1.1256 20.767-3.1338 3.2017 7.2076 12.809 12.447 24.145 12.447 13.537 0 24.594-7.4786 25.24-16.852 4.9513 1.2601 10.287 1.9504 15.857 1.9504 14.393 0 27.247-4.588 35.78-11.79 6.5765 3.2433 14.591 5.1499 23.238 5.1499 22.323 0 40.44-12.694 40.44-28.335s-18.117-28.336-40.44-28.336c-4.5587 0-8.9214 0.5363-13.011 1.5121-6.6595-13.211-24.631-22.703-45.757-22.703-6.9874 0-13.637 1.0493-19.641 2.9146-5.35-9.8939-19.01-16.94-34.998-16.94z" fill="#fff" stroke="#000" stroke-linecap="round" stroke-linejoin="round" stroke-miterlimit="5" stroke-opacity=".95161" stroke-width="4"/>
 <path d="m854.14 241.71c-20.66 0-38.169 9.4389-44.224 22.506-3.7096-6.5505-12.824-11.176-23.488-11.176-13.952 0-25.302 7.9312-25.302 17.707 0 1.008 0.1441 1.9963 0.37531 2.9585-15.802 5.609-26.647 17.077-26.647 30.33 0 18.769 21.753 34.011 48.54 34.011 16.26 0 30.632-5.6354 39.439-14.244 0.88165 0.04559 1.762 0.06043 2.6584 0.06574 4.7385 10.667 18.972 18.43 35.748 18.43 13.641 0 25.554-5.1268 32.089-12.776 0.41779 0.00717 0.83081 0.02191 1.251 0.02191 27.903 0 50.573-15.862 50.573-35.414 0-19.456-22.451-35.282-50.167-35.436-7.8944-10.119-23.238-16.984-40.846-16.984z" fill="#fff" stroke="#000" stroke-linecap="round" stroke-linejoin="round" stroke-miterlimit="5" stroke-opacity=".95161" stroke-width="4"/>
</svg>
