<?xml version="1.0" encoding="UTF-8"?>
<!DOCTYPE svg  PUBLIC '-//W3C//DTD SVG 1.1//EN'  'http://www.w3.org/Graphics/SVG/1.1/DTD/svg11.dtd'>
<svg enable-background="new 0 0 2560 1600" version="1.1" viewBox="0 0 2560 1600" xml:space="preserve" xmlns="http://www.w3.org/2000/svg" xmlns:xlink="http://www.w3.org/1999/xlink">
<rect width="2560" height="1600"/>
	<defs>
		<rect id="b" width="2560" height="1600"/>
	</defs>
	<clipPath id="a">
		<use overflow="visible" xlink:href="#b"/>
	</clipPath>
	<g clip-path="url(#a)" fill="none" stroke-miterlimit="22.926" stroke-width="10.319">
			<path d="m0 228.93c97.417-72.407 221.96-67.804 320 7.2321 108.23 82.91 218.92 174.04 320 139.84 116.88-39.752 203.33-171.52 320-204.99 102.62-29.255 210.62 68.68 320 150.07 97.417 72.407 221.96 67.804 320-7.2321 108.23-82.91 218.92-174.04 320-139.84 116.88 39.752 203.33 171.52 320 204.99 102.62 29.255 210.62-68.68 320-150.07" stroke="#00A551"/>
			<path d="m0 210.93c97.417-72.407 221.96-67.804 320 7.2321 108.23 82.91 218.92 174.04 320 139.84 116.88-39.752 203.33-171.52 320-204.99 102.62-29.255 210.62 68.68 320 150.07 97.417 72.407 221.96 67.804 320-7.2321 108.23-82.91 218.92-174.04 320-139.84 116.88 39.752 203.33 171.52 320 204.99 102.62 29.255 210.62-68.68 320-150.07" stroke="#00A9A7"/>
			<path d="m0 192.93c97.417-72.407 221.96-67.804 320 7.2321 108.23 82.91 218.92 174.04 320 139.84 116.88-39.752 203.33-171.52 320-204.99 102.62-29.255 210.62 68.68 320 150.07 97.417 72.407 221.96 67.804 320-7.2321 108.23-82.91 218.92-174.04 320-139.84 116.88 39.752 203.33 171.52 320 204.99 102.62 29.255 210.62-68.68 320-150.07" stroke="#EC1846"/>
			<path d="m0 174.93c97.417-72.407 221.96-67.804 320 7.2321 108.23 82.91 218.92 174.04 320 139.84 116.88-39.752 203.33-171.52 320-204.99 102.62-29.255 210.62 68.68 320 150.07 97.417 72.407 221.96 67.804 320-7.2321 108.23-82.91 218.92-174.04 320-139.84 116.88 39.752 203.33 171.52 320 204.99 102.62 29.255 210.62-68.68 320-150.07" stroke="#9C248E"/>
			<path d="m0 156.93c97.417-72.407 221.96-67.804 320 7.2321 108.23 82.91 218.92 174.04 320 139.84 116.88-39.752 203.33-171.52 320-204.99 102.62-29.255 210.62 68.68 320 150.07 97.417 72.407 221.96 67.804 320-7.2321 108.23-82.91 218.92-174.04 320-139.84 116.88 39.752 203.33 171.52 320 204.99 102.62 29.255 210.62-68.68 320-150.07" stroke="#2E3191"/>
			<path d="m0 138.93c97.417-72.407 221.96-67.804 320 7.2321 108.23 82.91 218.92 174.04 320 139.84 116.88-39.752 203.33-171.52 320-204.99 102.62-29.255 210.62 68.68 320 150.07 97.417 72.407 221.96 67.804 320-7.2321 108.23-82.91 218.92-174.04 320-139.84 116.88 39.752 203.33 171.52 320 204.99 102.62 29.255 210.62-68.68 320-150.07" stroke="#E1E319"/>
			<path d="m0 120.93c97.417-72.407 221.96-67.804 320 7.2321 108.23 82.91 218.92 174.04 320 139.84 116.88-39.752 203.33-171.52 320-204.99 102.62-29.255 210.62 68.68 320 150.07 97.417 72.407 221.96 67.804 320-7.2321 108.23-82.91 218.92-174.04 320-139.84 116.88 39.752 203.33 171.52 320 204.99 102.62 29.255 210.62-68.68 320-150.07" stroke="#00ABD4"/>
			<path d="m0 102.93c97.417-72.407 221.96-67.804 320 7.2321 108.23 82.91 218.92 174.04 320 139.84 116.88-39.752 203.33-171.52 320-204.99 102.62-29.255 210.62 68.68 320 150.07 97.417 72.407 221.96 67.804 320-7.2321 108.23-82.91 218.92-174.04 320-139.84 116.88 39.752 203.33 171.52 320 204.99 102.62 29.255 210.62-68.68 320-150.07" stroke="#EC027E"/>
			<path d="m0 84.928c97.417-72.407 221.96-67.804 320 7.2321 108.23 82.91 218.92 174.04 320 139.84 116.88-39.752 203.33-171.52 320-204.99 102.62-29.255 210.62 68.68 320 150.07 97.417 72.407 221.96 67.804 320-7.2321 108.23-82.91 218.92-174.04 320-139.84 116.88 39.752 203.33 171.52 320 204.99 102.62 29.255 210.62-68.68 320-150.07" stroke="#47B549"/>
			<path d="m0 66.928c97.417-72.407 221.96-67.804 320 7.2321 108.23 82.91 218.92 174.04 320 139.84 116.88-39.752 203.33-171.52 320-204.99 102.62-29.255 210.62 68.68 320 150.07 97.417 72.407 221.96 67.804 320-7.2321 108.23-82.91 218.92-174.04 320-139.84 116.88 39.752 203.33 171.52 320 204.99 102.62 29.255 210.62-68.68 320-150.07" stroke="#9DCB3B"/>
			<path d="m0 48.928c97.417-72.407 221.96-67.804 320 7.2321 108.23 82.91 218.92 174.04 320 139.84 116.88-39.752 203.33-171.52 320-204.99 102.62-29.255 210.62 68.68 320 150.07 97.417 72.407 221.96 67.804 320-7.2321 108.23-82.91 218.92-174.04 320-139.84 116.88 39.752 203.33 171.52 320 204.99 102.62 29.255 210.62-68.68 320-150.07" stroke="#00A67A"/>
			<path d="m0 30.928c97.417-72.407 221.96-67.804 320 7.2321 108.23 82.91 218.92 174.04 320 139.84 116.88-39.752 203.33-171.52 320-204.99 102.62-29.255 210.62 68.68 320 150.07 97.417 72.407 221.96 67.804 320-7.2321 108.23-82.91 218.92-174.04 320-139.84 116.88 39.752 203.33 171.52 320 204.99 102.62 29.255 210.62-68.68 320-150.07" stroke="#EC027E"/>
			<path d="m0 12.928c97.417-72.407 221.96-67.804 320 7.2321 108.23 82.91 218.92 174.04 320 139.84 116.88-39.752 203.33-171.52 320-204.99 102.62-29.255 210.62 68.68 320 150.07 97.417 72.407 221.96 67.804 320-7.2321 108.23-82.91 218.92-174.04 320-139.84 116.88 39.752 203.33 171.52 320 204.99 102.62 29.255 210.62-68.68 320-150.07" stroke="#0058A8"/>
			<path d="m0-5.0718c97.417-72.407 221.96-67.804 320 7.2321 108.23 82.91 218.92 174.04 320 139.84 116.88-39.752 203.33-171.52 320-204.99 102.62-29.255 210.62 68.68 320 150.07 97.417 72.407 221.96 67.804 320-7.2321 108.23-82.91 218.92-174.04 320-139.84 116.88 39.752 203.33 171.52 320 204.99 102.62 29.255 210.62-68.68 320-150.07" stroke="#9C248E"/>
			<path d="m0-23.072c97.417-72.407 221.96-67.804 320 7.2321 108.23 82.91 218.92 174.04 320 139.84 116.88-39.752 203.33-171.52 320-204.99 102.62-29.255 210.62 68.68 320 150.07 97.417 72.407 221.96 67.804 320-7.2321 108.23-82.91 218.92-174.04 320-139.84 116.88 39.752 203.33 171.52 320 204.99 102.62 29.255 210.62-68.68 320-150.07" stroke="#00A9A7"/>
			<path d="m0-41.072c97.417-72.407 221.96-67.804 320 7.2321 108.23 82.91 218.92 174.04 320 139.84 116.88-39.752 203.33-171.52 320-204.99 102.62-29.255 210.62 68.68 320 150.07 97.417 72.407 221.96 67.804 320-7.2321 108.23-82.91 218.92-174.04 320-139.84 116.88 39.752 203.33 171.52 320 204.99 102.62 29.255 210.62-68.68 320-150.07" stroke="#6B2C90"/>
			<path d="m0-59.072c97.417-72.407 221.96-67.804 320 7.2321 108.23 82.91 218.92 174.04 320 139.84 116.88-39.752 203.33-171.52 320-204.99 102.62-29.255 210.62 68.68 320 150.07 97.417 72.407 221.96 67.804 320-7.2321 108.23-82.91 218.92-174.04 320-139.84 116.88 39.752 203.33 171.52 320 204.99 102.62 29.255 210.62-68.68 320-150.07" stroke="#007AC1"/>
			<path d="m0-77.072c97.417-72.407 221.96-67.804 320 7.2321 108.23 82.91 218.92 174.04 320 139.84 116.88-39.752 203.33-171.52 320-204.99 102.62-29.255 210.62 68.68 320 150.07 97.417 72.407 221.96 67.804 320-7.2321 108.23-82.91 218.92-174.04 320-139.84 116.88 39.752 203.33 171.52 320 204.99 102.62 29.255 210.62-68.68 320-150.07" stroke="#00A9A7"/>
			<path d="m0-95.072c97.417-72.407 221.96-67.804 320 7.2321 108.23 82.91 218.92 174.04 320 139.84 116.88-39.752 203.33-171.52 320-204.99 102.62-29.255 210.62 68.68 320 150.07 97.417 72.407 221.96 67.804 320-7.2321 108.23-82.91 218.92-174.04 320-139.84 116.88 39.752 203.33 171.52 320 204.99 102.62 29.255 210.62-68.68 320-150.07" stroke="#EC1846"/>
			<path d="m0-113.07c97.417-72.407 221.96-67.804 320 7.2321 108.23 82.91 218.92 174.04 320 139.84 116.88-39.752 203.33-171.52 320-204.99 102.62-29.255 210.62 68.68 320 150.07 97.417 72.407 221.96 67.804 320-7.2321 108.23-82.91 218.92-174.04 320-139.84 116.88 39.752 203.33 171.52 320 204.99 102.62 29.255 210.62-68.68 320-150.07" stroke="#00A551"/>
			<path d="m0-131.07c97.417-72.407 221.96-67.804 320 7.2321 108.23 82.91 218.92 174.04 320 139.84 116.88-39.752 203.33-171.52 320-204.99 102.62-29.255 210.62 68.68 320 150.07 97.417 72.407 221.96 67.804 320-7.2321 108.23-82.91 218.92-174.04 320-139.84 116.88 39.752 203.33 171.52 320 204.99 102.62 29.255 210.62-68.68 320-150.07" stroke="#EC1846"/>
			<path d="m0-149.07c97.417-72.407 221.96-67.804 320 7.2321 108.23 82.91 218.92 174.04 320 139.84 116.88-39.752 203.33-171.52 320-204.99 102.62-29.255 210.62 68.68 320 150.07 97.417 72.407 221.96 67.804 320-7.2321 108.23-82.91 218.92-174.04 320-139.84 116.88 39.752 203.33 171.52 320 204.99 102.62 29.255 210.62-68.68 320-150.07" stroke="#007AC1"/>
			<path d="m0-167.07c97.417-72.407 221.96-67.804 320 7.2321 108.23 82.91 218.92 174.04 320 139.84 116.88-39.752 203.33-171.52 320-204.99 102.62-29.255 210.62 68.68 320 150.07 97.417 72.407 221.96 67.804 320-7.2321 108.23-82.91 218.92-174.04 320-139.84 116.88 39.752 203.33 171.52 320 204.99 102.62 29.255 210.62-68.68 320-150.07" stroke="#9DCB3B"/>
			<path d="m0-185.07c97.417-72.407 221.96-67.804 320 7.2321 108.23 82.91 218.92 174.04 320 139.84 116.88-39.752 203.33-171.52 320-204.99 102.62-29.255 210.62 68.68 320 150.07 97.417 72.407 221.96 67.804 320-7.2321 108.23-82.91 218.92-174.04 320-139.84 116.88 39.752 203.33 171.52 320 204.99 102.62 29.255 210.62-68.68 320-150.07" stroke="#EC027E"/>
			<path d="m0-203.07c97.417-72.407 221.96-67.804 320 7.2321 108.23 82.91 218.92 174.04 320 139.84 116.88-39.752 203.33-171.52 320-204.99 102.62-29.255 210.62 68.68 320 150.07 97.417 72.407 221.96 67.804 320-7.2321 108.23-82.91 218.92-174.04 320-139.84 116.88 39.752 203.33 171.52 320 204.99 102.62 29.255 210.62-68.68 320-150.07" stroke="#F9A11B"/>
			<path d="m0-221.07c97.417-72.407 221.96-67.804 320 7.2321 108.23 82.91 218.92 174.04 320 139.84 116.88-39.752 203.33-171.52 320-204.99 102.62-29.255 210.62 68.68 320 150.07 97.417 72.407 221.96 67.804 320-7.2321 108.23-82.91 218.92-174.04 320-139.84 116.88 39.752 203.33 171.52 320 204.99 102.62 29.255 210.62-68.68 320-150.07" stroke="#009ADE"/>
			<path d="m0-239.07c97.417-72.407 221.96-67.804 320 7.2321 108.23 82.91 218.92 174.04 320 139.84 116.88-39.752 203.33-171.52 320-204.99 102.62-29.255 210.62 68.68 320 150.07 97.417 72.407 221.96 67.804 320-7.2321 108.23-82.91 218.92-174.04 320-139.84 116.88 39.752 203.33 171.52 320 204.99 102.62 29.255 210.62-68.68 320-150.07" stroke="#00A67A"/>
			<path d="m0-257.07c97.417-72.407 221.96-67.804 320 7.2321 108.23 82.91 218.92 174.04 320 139.84 116.88-39.752 203.33-171.52 320-204.99 102.62-29.255 210.62 68.68 320 150.07 97.417 72.407 221.96 67.804 320-7.2321 108.23-82.91 218.92-174.04 320-139.84 116.88 39.752 203.33 171.52 320 204.99 102.62 29.255 210.62-68.68 320-150.07" stroke="#CE128B"/>
			<path d="m0-275.07c97.417-72.407 221.96-67.804 320 7.2321 108.23 82.91 218.92 174.04 320 139.84 116.88-39.752 203.33-171.52 320-204.99 102.62-29.255 210.62 68.68 320 150.07 97.417 72.407 221.96 67.804 320-7.2321 108.23-82.91 218.92-174.04 320-139.84 116.88 39.752 203.33 171.52 320 204.99 102.62 29.255 210.62-68.68 320-150.07" stroke="#FFD700"/>
			<path d="m0-293.07c97.417-72.407 221.96-67.804 320 7.2321 108.23 82.91 218.92 174.04 320 139.84 116.88-39.752 203.33-171.52 320-204.99 102.62-29.255 210.62 68.68 320 150.07 97.417 72.407 221.96 67.804 320-7.2321 108.23-82.91 218.92-174.04 320-139.84 116.88 39.752 203.33 171.52 320 204.99 102.62 29.255 210.62-68.68 320-150.07" stroke="#9DCB3B"/>
			<path d="m0-311.07c97.417-72.407 221.96-67.804 320 7.2321 108.23 82.91 218.92 174.04 320 139.84 116.88-39.752 203.33-171.52 320-204.99 102.62-29.255 210.62 68.68 320 150.07 97.417 72.407 221.96 67.804 320-7.2321 108.23-82.91 218.92-174.04 320-139.84 116.88 39.752 203.33 171.52 320 204.99 102.62 29.255 210.62-68.68 320-150.07" stroke="#2E3191"/>
			<path d="m0 758.93c97.417-72.407 221.96-67.804 320 7.2321 108.23 82.91 218.92 174.04 320 139.84 116.88-39.752 203.33-171.52 320-204.99 102.62-29.255 210.62 68.68 320 150.07 97.417 72.407 221.96 67.804 320-7.2321 108.23-82.91 218.92-174.04 320-139.84 116.88 39.752 203.33 171.52 320 204.99 102.62 29.255 210.62-68.68 320-150.07" stroke="#00A551"/>
			<path d="m0 740.93c97.417-72.407 221.96-67.804 320 7.2321 108.23 82.91 218.92 174.04 320 139.84 116.88-39.752 203.33-171.52 320-204.99 102.62-29.255 210.62 68.68 320 150.07 97.417 72.407 221.96 67.804 320-7.2321 108.23-82.91 218.92-174.04 320-139.84 116.88 39.752 203.33 171.52 320 204.99 102.62 29.255 210.62-68.68 320-150.07" stroke="#00A9A7"/>
			<path d="m0 722.93c97.417-72.407 221.96-67.804 320 7.2321 108.23 82.91 218.92 174.04 320 139.84 116.88-39.752 203.33-171.52 320-204.99 102.62-29.255 210.62 68.68 320 150.07 97.417 72.407 221.96 67.804 320-7.2321 108.23-82.91 218.92-174.04 320-139.84 116.88 39.752 203.33 171.52 320 204.99 102.62 29.255 210.62-68.68 320-150.07" stroke="#EC1846"/>
			<path d="m0 704.93c97.417-72.407 221.96-67.804 320 7.2321 108.23 82.91 218.92 174.04 320 139.84 116.88-39.752 203.33-171.52 320-204.99 102.62-29.255 210.62 68.68 320 150.07 97.417 72.407 221.96 67.804 320-7.2321 108.23-82.91 218.92-174.04 320-139.84 116.88 39.752 203.33 171.52 320 204.99 102.62 29.255 210.62-68.68 320-150.07" stroke="#9C248E"/>
			<path d="m0 686.93c97.417-72.407 221.96-67.804 320 7.2321 108.23 82.91 218.92 174.04 320 139.84 116.88-39.752 203.33-171.52 320-204.99 102.62-29.255 210.62 68.68 320 150.07 97.417 72.407 221.96 67.804 320-7.2321 108.23-82.91 218.92-174.04 320-139.84 116.88 39.752 203.33 171.52 320 204.99 102.62 29.255 210.62-68.68 320-150.07" stroke="#2E3191"/>
			<path d="m0 668.93c97.417-72.407 221.96-67.804 320 7.2321 108.23 82.91 218.92 174.04 320 139.84 116.88-39.752 203.33-171.52 320-204.99 102.62-29.255 210.62 68.68 320 150.07 97.417 72.407 221.96 67.804 320-7.2321 108.23-82.91 218.92-174.04 320-139.84 116.88 39.752 203.33 171.52 320 204.99 102.62 29.255 210.62-68.68 320-150.07" stroke="#E1E319"/>
			<path d="m0 650.93c97.417-72.407 221.96-67.804 320 7.2321 108.23 82.91 218.92 174.04 320 139.84 116.88-39.752 203.33-171.52 320-204.99 102.62-29.255 210.62 68.68 320 150.07 97.417 72.407 221.96 67.804 320-7.2321 108.23-82.91 218.92-174.04 320-139.84 116.88 39.752 203.33 171.52 320 204.99 102.62 29.255 210.62-68.68 320-150.07" stroke="#00ABD4"/>
			<path d="m0 632.93c97.417-72.407 221.96-67.804 320 7.2321 108.23 82.91 218.92 174.04 320 139.84 116.88-39.752 203.33-171.52 320-204.99 102.62-29.255 210.62 68.68 320 150.07 97.417 72.407 221.96 67.804 320-7.2321 108.23-82.91 218.92-174.04 320-139.84 116.88 39.752 203.33 171.52 320 204.99 102.62 29.255 210.62-68.68 320-150.07" stroke="#EC027E"/>
			<path d="m0 614.93c97.417-72.407 221.96-67.804 320 7.2321 108.23 82.91 218.92 174.04 320 139.84 116.88-39.752 203.33-171.52 320-204.99 102.62-29.255 210.62 68.68 320 150.07 97.417 72.407 221.96 67.804 320-7.2321 108.23-82.91 218.92-174.04 320-139.84 116.88 39.752 203.33 171.52 320 204.99 102.62 29.255 210.62-68.68 320-150.07" stroke="#47B549"/>
			<path d="m0 596.93c97.417-72.407 221.96-67.804 320 7.2321 108.23 82.91 218.92 174.04 320 139.84 116.88-39.752 203.33-171.52 320-204.99 102.62-29.255 210.62 68.68 320 150.07 97.417 72.407 221.96 67.804 320-7.2321 108.23-82.91 218.92-174.04 320-139.84 116.88 39.752 203.33 171.52 320 204.99 102.62 29.255 210.62-68.68 320-150.07" stroke="#9DCB3B"/>
			<path d="m0 578.93c97.417-72.407 221.96-67.804 320 7.2321 108.23 82.91 218.92 174.04 320 139.84 116.88-39.752 203.33-171.52 320-204.99 102.62-29.255 210.62 68.68 320 150.07 97.417 72.407 221.96 67.804 320-7.2321 108.23-82.91 218.92-174.04 320-139.84 116.88 39.752 203.33 171.52 320 204.99 102.62 29.255 210.62-68.68 320-150.07" stroke="#00A67A"/>
			<path d="m0 560.93c97.417-72.407 221.96-67.804 320 7.2321 108.23 82.91 218.92 174.04 320 139.84 116.88-39.752 203.33-171.52 320-204.99 102.62-29.255 210.62 68.68 320 150.07 97.417 72.407 221.96 67.804 320-7.2321 108.23-82.91 218.92-174.04 320-139.84 116.88 39.752 203.33 171.52 320 204.99 102.62 29.255 210.62-68.68 320-150.07" stroke="#EC027E"/>
			<path d="m0 542.93c97.417-72.407 221.96-67.804 320 7.2321 108.23 82.91 218.92 174.04 320 139.84 116.88-39.752 203.33-171.52 320-204.99 102.62-29.255 210.62 68.68 320 150.07 97.417 72.407 221.96 67.804 320-7.2321 108.23-82.91 218.92-174.04 320-139.84 116.88 39.752 203.33 171.52 320 204.99 102.62 29.255 210.62-68.68 320-150.07" stroke="#0058A8"/>
			<path d="m0 524.93c97.417-72.407 221.96-67.804 320 7.2321 108.23 82.91 218.92 174.04 320 139.84 116.88-39.752 203.33-171.52 320-204.99 102.62-29.255 210.62 68.68 320 150.07 97.417 72.407 221.96 67.804 320-7.2321 108.23-82.91 218.92-174.04 320-139.84 116.88 39.752 203.33 171.52 320 204.99 102.62 29.255 210.62-68.68 320-150.07" stroke="#9C248E"/>
			<path d="m0 506.93c97.417-72.407 221.96-67.804 320 7.2321 108.23 82.91 218.92 174.04 320 139.84 116.88-39.752 203.33-171.52 320-204.99 102.62-29.255 210.62 68.68 320 150.07 97.417 72.407 221.96 67.804 320-7.2321 108.23-82.91 218.92-174.04 320-139.84 116.88 39.752 203.33 171.52 320 204.99 102.62 29.255 210.62-68.68 320-150.07" stroke="#00A9A7"/>
			<path d="m0 488.93c97.417-72.407 221.96-67.804 320 7.2321 108.23 82.91 218.92 174.04 320 139.84 116.88-39.752 203.33-171.52 320-204.99 102.62-29.255 210.62 68.68 320 150.07 97.417 72.407 221.96 67.804 320-7.2321 108.23-82.91 218.92-174.04 320-139.84 116.88 39.752 203.33 171.52 320 204.99 102.62 29.255 210.62-68.68 320-150.07" stroke="#6B2C90"/>
			<path d="m0 470.93c97.417-72.407 221.96-67.804 320 7.2321 108.23 82.91 218.92 174.04 320 139.84 116.88-39.752 203.33-171.52 320-204.99 102.62-29.255 210.62 68.68 320 150.07 97.417 72.407 221.96 67.804 320-7.2321 108.23-82.91 218.92-174.04 320-139.84 116.88 39.752 203.33 171.52 320 204.99 102.62 29.255 210.62-68.68 320-150.07" stroke="#007AC1"/>
			<path d="m0 452.93c97.417-72.407 221.96-67.804 320 7.2321 108.23 82.91 218.92 174.04 320 139.84 116.88-39.752 203.33-171.52 320-204.99 102.62-29.255 210.62 68.68 320 150.07 97.417 72.407 221.96 67.804 320-7.2321 108.23-82.91 218.92-174.04 320-139.84 116.88 39.752 203.33 171.52 320 204.99 102.62 29.255 210.62-68.68 320-150.07" stroke="#00A9A7"/>
			<path d="m0 434.93c97.417-72.407 221.96-67.804 320 7.2321 108.23 82.91 218.92 174.04 320 139.84 116.88-39.752 203.33-171.52 320-204.99 102.62-29.255 210.62 68.68 320 150.07 97.417 72.407 221.96 67.804 320-7.2321 108.23-82.91 218.92-174.04 320-139.84 116.88 39.752 203.33 171.52 320 204.99 102.62 29.255 210.62-68.68 320-150.07" stroke="#EC1846"/>
			<path d="m0 416.93c97.417-72.407 221.96-67.804 320 7.2321 108.23 82.91 218.92 174.04 320 139.84 116.88-39.752 203.33-171.52 320-204.99 102.62-29.255 210.62 68.68 320 150.07 97.417 72.407 221.96 67.804 320-7.2321 108.23-82.91 218.92-174.04 320-139.84 116.88 39.752 203.33 171.52 320 204.99 102.62 29.255 210.62-68.68 320-150.07" stroke="#00A551"/>
			<path d="m0 398.93c97.417-72.407 221.96-67.804 320 7.2321 108.23 82.91 218.92 174.04 320 139.84 116.88-39.752 203.33-171.52 320-204.99 102.62-29.255 210.62 68.68 320 150.07 97.417 72.407 221.96 67.804 320-7.2321 108.23-82.91 218.92-174.04 320-139.84 116.88 39.752 203.33 171.52 320 204.99 102.62 29.255 210.62-68.68 320-150.07" stroke="#EC1846"/>
			<path d="m0 380.93c97.417-72.407 221.96-67.804 320 7.2321 108.23 82.91 218.92 174.04 320 139.84 116.88-39.752 203.33-171.52 320-204.99 102.62-29.255 210.62 68.68 320 150.07 97.417 72.407 221.96 67.804 320-7.2321 108.23-82.91 218.92-174.04 320-139.84 116.88 39.752 203.33 171.52 320 204.99 102.62 29.255 210.62-68.68 320-150.07" stroke="#007AC1"/>
			<path d="m0 362.93c97.417-72.407 221.96-67.804 320 7.2321 108.23 82.91 218.92 174.04 320 139.84 116.88-39.752 203.33-171.52 320-204.99 102.62-29.255 210.62 68.68 320 150.07 97.417 72.407 221.96 67.804 320-7.2321 108.23-82.91 218.92-174.04 320-139.84 116.88 39.752 203.33 171.52 320 204.99 102.62 29.255 210.62-68.68 320-150.07" stroke="#9DCB3B"/>
			<path d="m0 344.93c97.417-72.407 221.96-67.804 320 7.2321 108.23 82.91 218.92 174.04 320 139.84 116.88-39.752 203.33-171.52 320-204.99 102.62-29.255 210.62 68.68 320 150.07 97.417 72.407 221.96 67.804 320-7.2321 108.23-82.91 218.92-174.04 320-139.84 116.88 39.752 203.33 171.52 320 204.99 102.62 29.255 210.62-68.68 320-150.07" stroke="#EC027E"/>
			<path d="m0 326.93c97.417-72.407 221.96-67.804 320 7.2321 108.23 82.91 218.92 174.04 320 139.84 116.88-39.752 203.33-171.52 320-204.99 102.62-29.255 210.62 68.68 320 150.07 97.417 72.407 221.96 67.804 320-7.2321 108.23-82.91 218.92-174.04 320-139.84 116.88 39.752 203.33 171.52 320 204.99 102.62 29.255 210.62-68.68 320-150.07" stroke="#F9A11B"/>
			<path d="m0 308.93c97.417-72.407 221.96-67.804 320 7.2321 108.23 82.91 218.92 174.04 320 139.84 116.88-39.752 203.33-171.52 320-204.99 102.62-29.255 210.62 68.68 320 150.07 97.417 72.407 221.96 67.804 320-7.2321 108.23-82.91 218.92-174.04 320-139.84 116.88 39.752 203.33 171.52 320 204.99 102.62 29.255 210.62-68.68 320-150.07" stroke="#009ADE"/>
			<path d="m0 290.93c97.417-72.407 221.96-67.804 320 7.2321 108.23 82.91 218.92 174.04 320 139.84 116.88-39.752 203.33-171.52 320-204.99 102.62-29.255 210.62 68.68 320 150.07 97.417 72.407 221.96 67.804 320-7.2321 108.23-82.91 218.92-174.04 320-139.84 116.88 39.752 203.33 171.52 320 204.99 102.62 29.255 210.62-68.68 320-150.07" stroke="#00A67A"/>
			<path d="m0 272.93c97.417-72.407 221.96-67.804 320 7.2321 108.23 82.91 218.92 174.04 320 139.84 116.88-39.752 203.33-171.52 320-204.99 102.62-29.255 210.62 68.68 320 150.07 97.417 72.407 221.96 67.804 320-7.2321 108.23-82.91 218.92-174.04 320-139.84 116.88 39.752 203.33 171.52 320 204.99 102.62 29.255 210.62-68.68 320-150.07" stroke="#CE128B"/>
			<path d="m0 254.93c97.417-72.407 221.96-67.804 320 7.2321 108.23 82.91 218.92 174.04 320 139.84 116.88-39.752 203.33-171.52 320-204.99 102.62-29.255 210.62 68.68 320 150.07 97.417 72.407 221.96 67.804 320-7.2321 108.23-82.91 218.92-174.04 320-139.84 116.88 39.752 203.33 171.52 320 204.99 102.62 29.255 210.62-68.68 320-150.07" stroke="#FFD700"/>
			<path d="m0 236.93c97.417-72.407 221.96-67.804 320 7.2321 108.23 82.91 218.92 174.04 320 139.84 116.88-39.752 203.33-171.52 320-204.99 102.62-29.255 210.62 68.68 320 150.07 97.417 72.407 221.96 67.804 320-7.2321 108.23-82.91 218.92-174.04 320-139.84 116.88 39.752 203.33 171.52 320 204.99 102.62 29.255 210.62-68.68 320-150.07" stroke="#9DCB3B"/>
			<path d="m0 218.93c97.417-72.407 221.96-67.804 320 7.2321 108.23 82.91 218.92 174.04 320 139.84 116.88-39.752 203.33-171.52 320-204.99 102.62-29.255 210.62 68.68 320 150.07 97.417 72.407 221.96 67.804 320-7.2321 108.23-82.91 218.92-174.04 320-139.84 116.88 39.752 203.33 171.52 320 204.99 102.62 29.255 210.62-68.68 320-150.07" stroke="#2E3191"/>
			<path d="m0 1288.9c97.417-72.407 221.96-67.804 320 7.2322 108.23 82.91 218.92 174.04 320 139.84 116.88-39.752 203.33-171.52 320-204.99 102.62-29.255 210.62 68.68 320 150.07 97.417 72.407 221.96 67.804 320-7.2321 108.23-82.91 218.92-174.04 320-139.84 116.88 39.752 203.33 171.52 320 204.99 102.62 29.255 210.62-68.68 320-150.07" stroke="#00A551"/>
			<path d="m0 1270.9c97.417-72.407 221.96-67.804 320 7.2322 108.23 82.91 218.92 174.04 320 139.84 116.88-39.752 203.33-171.52 320-204.99 102.62-29.255 210.62 68.68 320 150.07 97.417 72.407 221.96 67.804 320-7.2321 108.23-82.91 218.92-174.04 320-139.84 116.88 39.752 203.33 171.52 320 204.99 102.62 29.255 210.62-68.68 320-150.07" stroke="#00A9A7"/>
			<path d="m0 1252.9c97.417-72.407 221.96-67.804 320 7.2322 108.23 82.91 218.92 174.04 320 139.84 116.88-39.752 203.33-171.52 320-204.99 102.62-29.255 210.62 68.68 320 150.07 97.417 72.407 221.96 67.804 320-7.2321 108.23-82.91 218.92-174.04 320-139.84 116.88 39.752 203.33 171.52 320 204.99 102.62 29.255 210.62-68.68 320-150.07" stroke="#EC1846"/>
			<path d="m0 1234.9c97.417-72.407 221.96-67.804 320 7.2322 108.23 82.91 218.92 174.04 320 139.84 116.88-39.752 203.33-171.52 320-204.99 102.62-29.255 210.62 68.68 320 150.07 97.417 72.407 221.96 67.804 320-7.2321 108.23-82.91 218.92-174.04 320-139.84 116.88 39.752 203.33 171.52 320 204.99 102.62 29.255 210.62-68.68 320-150.07" stroke="#9C248E"/>
			<path d="m0 1216.9c97.417-72.407 221.96-67.804 320 7.2322 108.23 82.91 218.92 174.04 320 139.84 116.88-39.752 203.33-171.52 320-204.99 102.62-29.255 210.62 68.68 320 150.07 97.417 72.407 221.96 67.804 320-7.2321 108.23-82.91 218.92-174.04 320-139.84 116.88 39.752 203.33 171.52 320 204.99 102.62 29.255 210.62-68.68 320-150.07" stroke="#2E3191"/>
			<path d="m0 1198.9c97.417-72.407 221.96-67.804 320 7.2322 108.23 82.91 218.92 174.04 320 139.84 116.88-39.752 203.33-171.52 320-204.99 102.62-29.255 210.62 68.68 320 150.07 97.417 72.407 221.96 67.804 320-7.2321 108.23-82.91 218.92-174.04 320-139.84 116.88 39.752 203.33 171.52 320 204.99 102.62 29.255 210.62-68.68 320-150.07" stroke="#E1E319"/>
			<path d="m0 1180.9c97.417-72.407 221.96-67.804 320 7.2322 108.23 82.91 218.92 174.04 320 139.84 116.88-39.752 203.33-171.52 320-204.99 102.62-29.255 210.62 68.68 320 150.07 97.417 72.407 221.96 67.804 320-7.2321 108.23-82.91 218.92-174.04 320-139.84 116.88 39.752 203.33 171.52 320 204.99 102.62 29.255 210.62-68.68 320-150.07" stroke="#00ABD4"/>
			<path d="m0 1162.9c97.417-72.407 221.96-67.804 320 7.2322 108.23 82.91 218.92 174.04 320 139.84 116.88-39.752 203.33-171.52 320-204.99 102.62-29.255 210.62 68.68 320 150.07 97.417 72.407 221.96 67.804 320-7.2321 108.23-82.91 218.92-174.04 320-139.84 116.88 39.752 203.33 171.52 320 204.99 102.62 29.255 210.62-68.68 320-150.07" stroke="#EC027E"/>
			<path d="m0 1144.9c97.417-72.407 221.96-67.804 320 7.2322 108.23 82.91 218.92 174.04 320 139.84 116.88-39.752 203.33-171.52 320-204.99 102.62-29.255 210.62 68.68 320 150.07 97.417 72.407 221.96 67.804 320-7.2321 108.23-82.91 218.92-174.04 320-139.84 116.88 39.752 203.33 171.52 320 204.99 102.62 29.255 210.62-68.68 320-150.07" stroke="#47B549"/>
			<path d="m0 1126.9c97.417-72.407 221.96-67.804 320 7.2322 108.23 82.91 218.92 174.04 320 139.84 116.88-39.752 203.33-171.52 320-204.99 102.62-29.255 210.62 68.68 320 150.07 97.417 72.407 221.96 67.804 320-7.2321 108.23-82.91 218.92-174.04 320-139.84 116.88 39.752 203.33 171.52 320 204.99 102.62 29.255 210.62-68.68 320-150.07" stroke="#9DCB3B"/>
			<path d="m0 1108.9c97.417-72.407 221.96-67.804 320 7.2322 108.23 82.91 218.92 174.04 320 139.84 116.88-39.752 203.33-171.52 320-204.99 102.62-29.255 210.62 68.68 320 150.07 97.417 72.407 221.96 67.804 320-7.2321 108.23-82.91 218.92-174.04 320-139.84 116.88 39.752 203.33 171.52 320 204.99 102.62 29.255 210.62-68.68 320-150.07" stroke="#00A67A"/>
			<path d="m0 1090.9c97.417-72.407 221.96-67.804 320 7.2322 108.23 82.91 218.92 174.04 320 139.84 116.88-39.752 203.33-171.52 320-204.99 102.62-29.255 210.62 68.68 320 150.07 97.417 72.407 221.96 67.804 320-7.2321 108.23-82.91 218.92-174.04 320-139.84 116.88 39.752 203.33 171.52 320 204.99 102.62 29.255 210.62-68.68 320-150.07" stroke="#EC027E"/>
			<path d="m0 1072.9c97.417-72.407 221.96-67.804 320 7.2322 108.23 82.91 218.92 174.04 320 139.84 116.88-39.752 203.33-171.52 320-204.99 102.62-29.255 210.62 68.68 320 150.07 97.417 72.407 221.96 67.804 320-7.2321 108.23-82.91 218.92-174.04 320-139.84 116.88 39.752 203.33 171.52 320 204.99 102.62 29.255 210.62-68.68 320-150.07" stroke="#0058A8"/>
			<path d="m0 1054.9c97.417-72.407 221.96-67.804 320 7.2322 108.23 82.91 218.92 174.04 320 139.84 116.88-39.752 203.33-171.52 320-204.99 102.62-29.255 210.62 68.68 320 150.07 97.417 72.407 221.96 67.804 320-7.2321 108.23-82.91 218.92-174.04 320-139.84 116.88 39.752 203.33 171.52 320 204.99 102.62 29.255 210.62-68.68 320-150.07" stroke="#9C248E"/>
			<path d="m0 1036.9c97.417-72.407 221.96-67.804 320 7.2322 108.23 82.91 218.92 174.04 320 139.84 116.88-39.752 203.33-171.52 320-204.99 102.62-29.255 210.62 68.68 320 150.07 97.417 72.407 221.96 67.804 320-7.2321 108.23-82.91 218.92-174.04 320-139.84 116.88 39.752 203.33 171.52 320 204.99 102.62 29.255 210.62-68.68 320-150.07" stroke="#00A9A7"/>
			<path d="m0 1018.9c97.417-72.407 221.96-67.804 320 7.2321 108.23 82.91 218.92 174.04 320 139.84 116.88-39.752 203.33-171.52 320-204.99 102.62-29.255 210.62 68.68 320 150.07 97.417 72.407 221.96 67.804 320-7.2321 108.23-82.91 218.92-174.04 320-139.84 116.88 39.752 203.33 171.52 320 204.99 102.62 29.255 210.62-68.68 320-150.07" stroke="#6B2C90"/>
			<path d="m0 1000.9c97.417-72.407 221.96-67.804 320 7.2321 108.23 82.91 218.92 174.04 320 139.84 116.88-39.752 203.33-171.52 320-204.99 102.62-29.255 210.62 68.68 320 150.07 97.417 72.407 221.96 67.804 320-7.2321 108.23-82.91 218.92-174.04 320-139.84 116.88 39.752 203.33 171.52 320 204.99 102.62 29.255 210.62-68.68 320-150.07" stroke="#007AC1"/>
			<path d="m0 982.93c97.417-72.407 221.96-67.804 320 7.2321 108.23 82.91 218.92 174.04 320 139.84 116.88-39.752 203.33-171.52 320-204.99 102.62-29.255 210.62 68.68 320 150.07 97.417 72.407 221.96 67.804 320-7.2321 108.23-82.91 218.92-174.04 320-139.84 116.88 39.752 203.33 171.52 320 204.99 102.62 29.255 210.62-68.68 320-150.07" stroke="#00A9A7"/>
			<path d="m0 964.93c97.417-72.407 221.96-67.804 320 7.2321 108.23 82.91 218.92 174.04 320 139.84 116.88-39.752 203.33-171.52 320-204.99 102.62-29.255 210.62 68.68 320 150.07 97.417 72.407 221.96 67.804 320-7.2321 108.23-82.91 218.92-174.04 320-139.84 116.88 39.752 203.33 171.52 320 204.99 102.62 29.255 210.62-68.68 320-150.07" stroke="#EC1846"/>
			<path d="m0 946.93c97.417-72.407 221.96-67.804 320 7.2321 108.23 82.91 218.92 174.04 320 139.84 116.88-39.752 203.33-171.52 320-204.99 102.62-29.255 210.62 68.68 320 150.07 97.417 72.407 221.96 67.804 320-7.2321 108.23-82.91 218.92-174.04 320-139.84 116.88 39.752 203.33 171.52 320 204.99 102.62 29.255 210.62-68.68 320-150.07" stroke="#00A551"/>
			<path d="m0 928.93c97.417-72.407 221.96-67.804 320 7.2321 108.23 82.91 218.92 174.04 320 139.84 116.88-39.752 203.33-171.52 320-204.99 102.62-29.255 210.62 68.68 320 150.07 97.417 72.407 221.96 67.804 320-7.2321 108.23-82.91 218.92-174.04 320-139.84 116.88 39.752 203.33 171.52 320 204.99 102.62 29.255 210.62-68.68 320-150.07" stroke="#EC1846"/>
			<path d="m0 910.93c97.417-72.407 221.96-67.804 320 7.2321 108.23 82.91 218.92 174.04 320 139.84 116.88-39.752 203.33-171.52 320-204.99 102.62-29.255 210.62 68.68 320 150.07 97.417 72.407 221.96 67.804 320-7.2321 108.23-82.91 218.92-174.04 320-139.84 116.88 39.752 203.33 171.52 320 204.99 102.62 29.255 210.62-68.68 320-150.07" stroke="#007AC1"/>
			<path d="m0 892.93c97.417-72.407 221.96-67.804 320 7.2321 108.23 82.91 218.92 174.04 320 139.84 116.88-39.752 203.33-171.52 320-204.99 102.62-29.255 210.62 68.68 320 150.07 97.417 72.407 221.96 67.804 320-7.2321 108.23-82.91 218.92-174.04 320-139.84 116.88 39.752 203.33 171.52 320 204.99 102.62 29.255 210.62-68.68 320-150.07" stroke="#9DCB3B"/>
			<path d="m0 874.93c97.417-72.407 221.96-67.804 320 7.2321 108.23 82.91 218.92 174.04 320 139.84 116.88-39.752 203.33-171.52 320-204.99 102.62-29.255 210.62 68.68 320 150.07 97.417 72.407 221.96 67.804 320-7.2321 108.23-82.91 218.92-174.04 320-139.84 116.88 39.752 203.33 171.52 320 204.99 102.62 29.255 210.62-68.68 320-150.07" stroke="#EC027E"/>
			<path d="m0 856.93c97.417-72.407 221.96-67.804 320 7.2321 108.23 82.91 218.92 174.04 320 139.84 116.88-39.752 203.33-171.52 320-204.99 102.62-29.255 210.62 68.68 320 150.07 97.417 72.407 221.96 67.804 320-7.2321 108.23-82.91 218.92-174.04 320-139.84 116.88 39.752 203.33 171.52 320 204.99 102.62 29.255 210.62-68.68 320-150.07" stroke="#F9A11B"/>
			<path d="m0 838.93c97.417-72.407 221.96-67.804 320 7.2321 108.23 82.91 218.92 174.04 320 139.84 116.88-39.752 203.33-171.52 320-204.99 102.62-29.255 210.62 68.68 320 150.07 97.417 72.407 221.96 67.804 320-7.2321 108.23-82.91 218.92-174.04 320-139.84 116.88 39.752 203.33 171.52 320 204.99 102.62 29.255 210.62-68.68 320-150.07" stroke="#009ADE"/>
			<path d="m0 820.93c97.417-72.407 221.96-67.804 320 7.2321 108.23 82.91 218.92 174.04 320 139.84 116.88-39.752 203.33-171.52 320-204.99 102.62-29.255 210.62 68.68 320 150.07 97.417 72.407 221.96 67.804 320-7.2321 108.23-82.91 218.92-174.04 320-139.84 116.88 39.752 203.33 171.52 320 204.99 102.62 29.255 210.62-68.68 320-150.07" stroke="#00A67A"/>
			<path d="m0 802.93c97.417-72.407 221.96-67.804 320 7.2321 108.23 82.91 218.92 174.04 320 139.84 116.88-39.752 203.33-171.52 320-204.99 102.62-29.255 210.62 68.68 320 150.07 97.417 72.407 221.96 67.804 320-7.2321 108.23-82.91 218.92-174.04 320-139.84 116.88 39.752 203.33 171.52 320 204.99 102.62 29.255 210.62-68.68 320-150.07" stroke="#CE128B"/>
			<path d="m0 784.93c97.417-72.407 221.96-67.804 320 7.2321 108.23 82.91 218.92 174.04 320 139.84 116.88-39.752 203.33-171.52 320-204.99 102.62-29.255 210.62 68.68 320 150.07 97.417 72.407 221.96 67.804 320-7.2321 108.23-82.91 218.92-174.04 320-139.84 116.88 39.752 203.33 171.52 320 204.99 102.62 29.255 210.62-68.68 320-150.07" stroke="#FFD700"/>
			<path d="m0 766.93c97.417-72.407 221.96-67.804 320 7.2321 108.23 82.91 218.92 174.04 320 139.84 116.88-39.752 203.33-171.52 320-204.99 102.62-29.255 210.62 68.68 320 150.07 97.417 72.407 221.96 67.804 320-7.2321 108.23-82.91 218.92-174.04 320-139.84 116.88 39.752 203.33 171.52 320 204.99 102.62 29.255 210.62-68.68 320-150.07" stroke="#9DCB3B"/>
			<path d="m0 748.93c97.417-72.407 221.96-67.804 320 7.2321 108.23 82.91 218.92 174.04 320 139.84 116.88-39.752 203.33-171.52 320-204.99 102.62-29.255 210.62 68.68 320 150.07 97.417 72.407 221.96 67.804 320-7.2321 108.23-82.91 218.92-174.04 320-139.84 116.88 39.752 203.33 171.52 320 204.99 102.62 29.255 210.62-68.68 320-150.07" stroke="#2E3191"/>
			<path d="m0 1818.9c97.417-72.407 221.96-67.804 320 7.2321 108.23 82.91 218.92 174.04 320 139.84 116.88-39.752 203.33-171.52 320-204.99 102.62-29.255 210.62 68.68 320 150.07 97.417 72.407 221.96 67.804 320-7.2321 108.23-82.91 218.92-174.04 320-139.84 116.88 39.752 203.33 171.52 320 204.99 102.62 29.255 210.62-68.68 320-150.07" stroke="#00A551"/>
			<path d="m0 1800.9c97.417-72.407 221.96-67.804 320 7.2321 108.23 82.91 218.92 174.04 320 139.84 116.88-39.752 203.33-171.52 320-204.99 102.62-29.255 210.62 68.68 320 150.07 97.417 72.407 221.96 67.804 320-7.2321 108.23-82.91 218.92-174.04 320-139.84 116.88 39.752 203.33 171.52 320 204.99 102.62 29.255 210.62-68.68 320-150.07" stroke="#00A9A7"/>
			<path d="m0 1782.9c97.417-72.407 221.96-67.804 320 7.2321 108.23 82.91 218.92 174.04 320 139.84 116.88-39.752 203.33-171.52 320-204.99 102.62-29.255 210.62 68.68 320 150.07 97.417 72.407 221.96 67.804 320-7.2321 108.23-82.91 218.92-174.04 320-139.84 116.88 39.752 203.33 171.52 320 204.99 102.62 29.255 210.62-68.68 320-150.07" stroke="#EC1846"/>
			<path d="m0 1764.9c97.417-72.407 221.96-67.804 320 7.2321 108.23 82.91 218.92 174.04 320 139.84 116.88-39.752 203.33-171.52 320-204.99 102.62-29.255 210.62 68.68 320 150.07 97.417 72.407 221.96 67.804 320-7.2321 108.23-82.91 218.92-174.04 320-139.84 116.88 39.752 203.33 171.52 320 204.99 102.62 29.255 210.62-68.68 320-150.07" stroke="#9C248E"/>
			<path d="m0 1746.9c97.417-72.407 221.96-67.804 320 7.2321 108.23 82.91 218.92 174.04 320 139.84 116.88-39.752 203.33-171.52 320-204.99 102.62-29.255 210.62 68.68 320 150.07 97.417 72.407 221.96 67.804 320-7.2321 108.23-82.91 218.92-174.04 320-139.84 116.88 39.752 203.33 171.52 320 204.99 102.62 29.255 210.62-68.68 320-150.07" stroke="#2E3191"/>
			<path d="m0 1728.9c97.417-72.407 221.96-67.804 320 7.2321 108.23 82.91 218.92 174.04 320 139.84 116.88-39.752 203.33-171.52 320-204.99 102.62-29.255 210.62 68.68 320 150.07 97.417 72.407 221.96 67.804 320-7.2321 108.23-82.91 218.92-174.04 320-139.84 116.88 39.752 203.33 171.52 320 204.99 102.62 29.255 210.62-68.68 320-150.07" stroke="#E1E319"/>
			<path d="m0 1710.9c97.417-72.407 221.96-67.804 320 7.2321 108.23 82.91 218.92 174.04 320 139.84 116.88-39.752 203.33-171.52 320-204.99 102.62-29.255 210.62 68.68 320 150.07 97.417 72.407 221.96 67.804 320-7.2321 108.23-82.91 218.92-174.04 320-139.84 116.88 39.752 203.33 171.52 320 204.99 102.62 29.255 210.62-68.68 320-150.07" stroke="#00ABD4"/>
			<path d="m0 1692.9c97.417-72.407 221.96-67.804 320 7.2321 108.23 82.91 218.92 174.04 320 139.84 116.88-39.752 203.33-171.52 320-204.99 102.62-29.255 210.62 68.68 320 150.07 97.417 72.407 221.96 67.804 320-7.2321 108.23-82.91 218.92-174.04 320-139.84 116.88 39.752 203.33 171.52 320 204.99 102.62 29.255 210.62-68.68 320-150.07" stroke="#EC027E"/>
			<path d="m0 1674.9c97.417-72.407 221.96-67.804 320 7.2321 108.23 82.91 218.92 174.04 320 139.84 116.88-39.752 203.33-171.52 320-204.99 102.62-29.255 210.62 68.68 320 150.07 97.417 72.407 221.96 67.804 320-7.2321 108.23-82.91 218.92-174.04 320-139.84 116.88 39.752 203.33 171.52 320 204.99 102.62 29.255 210.62-68.68 320-150.07" stroke="#47B549"/>
			<path d="m0 1656.9c97.417-72.407 221.96-67.804 320 7.2321 108.23 82.91 218.92 174.04 320 139.84 116.88-39.752 203.33-171.52 320-204.99 102.62-29.255 210.62 68.68 320 150.07 97.417 72.407 221.96 67.804 320-7.2321 108.23-82.91 218.92-174.04 320-139.84 116.88 39.752 203.33 171.52 320 204.99 102.62 29.255 210.62-68.68 320-150.07" stroke="#9DCB3B"/>
			<path d="m0 1638.9c97.417-72.407 221.96-67.804 320 7.2321 108.23 82.91 218.92 174.04 320 139.84 116.88-39.752 203.33-171.52 320-204.99 102.62-29.255 210.62 68.68 320 150.07 97.417 72.407 221.96 67.804 320-7.2321 108.23-82.91 218.92-174.04 320-139.84 116.88 39.752 203.33 171.52 320 204.99 102.62 29.255 210.62-68.68 320-150.07" stroke="#00A67A"/>
			<path d="m0 1620.9c97.417-72.407 221.96-67.804 320 7.2321 108.23 82.91 218.92 174.04 320 139.84 116.88-39.752 203.33-171.52 320-204.99 102.62-29.255 210.62 68.68 320 150.07 97.417 72.407 221.96 67.804 320-7.2321 108.23-82.91 218.92-174.04 320-139.84 116.88 39.752 203.33 171.52 320 204.99 102.62 29.255 210.62-68.68 320-150.07" stroke="#EC027E"/>
			<path d="m0 1602.9c97.417-72.407 221.96-67.804 320 7.2321 108.23 82.91 218.92 174.04 320 139.84 116.88-39.752 203.33-171.52 320-204.99 102.62-29.255 210.62 68.68 320 150.07 97.417 72.407 221.96 67.804 320-7.2321 108.23-82.91 218.92-174.04 320-139.84 116.88 39.752 203.33 171.52 320 204.99 102.62 29.255 210.62-68.68 320-150.07" stroke="#0058A8"/>
			<path d="m0 1584.9c97.417-72.407 221.96-67.804 320 7.2321 108.23 82.91 218.92 174.04 320 139.84 116.88-39.752 203.33-171.52 320-204.99 102.62-29.255 210.62 68.68 320 150.07 97.417 72.407 221.96 67.804 320-7.2321 108.23-82.91 218.92-174.04 320-139.84 116.88 39.752 203.33 171.52 320 204.99 102.62 29.255 210.62-68.68 320-150.07" stroke="#9C248E"/>
			<path d="m0 1566.9c97.417-72.407 221.96-67.804 320 7.2321 108.23 82.91 218.92 174.04 320 139.84 116.88-39.752 203.33-171.52 320-204.99 102.62-29.255 210.62 68.68 320 150.07 97.417 72.407 221.96 67.804 320-7.2321 108.23-82.91 218.92-174.04 320-139.84 116.88 39.752 203.33 171.52 320 204.99 102.62 29.255 210.62-68.68 320-150.07" stroke="#00A9A7"/>
			<path d="m0 1548.9c97.417-72.407 221.96-67.804 320 7.2321 108.23 82.91 218.92 174.04 320 139.84 116.88-39.752 203.33-171.52 320-204.99 102.62-29.255 210.62 68.68 320 150.07 97.417 72.407 221.96 67.804 320-7.2321 108.23-82.91 218.92-174.04 320-139.84 116.88 39.752 203.33 171.52 320 204.99 102.62 29.255 210.62-68.68 320-150.07" stroke="#6B2C90"/>
			<path d="m0 1530.9c97.417-72.407 221.96-67.804 320 7.2321 108.23 82.91 218.92 174.04 320 139.84 116.88-39.752 203.33-171.52 320-204.99 102.62-29.255 210.62 68.68 320 150.07 97.417 72.407 221.96 67.804 320-7.2321 108.23-82.91 218.92-174.04 320-139.84 116.88 39.752 203.33 171.52 320 204.99 102.62 29.255 210.62-68.68 320-150.07" stroke="#007AC1"/>
			<path d="m0 1512.9c97.417-72.407 221.96-67.804 320 7.2321 108.23 82.91 218.92 174.04 320 139.84 116.88-39.752 203.33-171.52 320-204.99 102.62-29.255 210.62 68.68 320 150.07 97.417 72.407 221.96 67.804 320-7.2321 108.23-82.91 218.92-174.04 320-139.84 116.88 39.752 203.33 171.52 320 204.99 102.62 29.255 210.62-68.68 320-150.07" stroke="#00A9A7"/>
			<path d="m0 1494.9c97.417-72.407 221.96-67.804 320 7.2321 108.23 82.91 218.92 174.04 320 139.84 116.88-39.752 203.33-171.52 320-204.99 102.62-29.255 210.62 68.68 320 150.07 97.417 72.407 221.96 67.804 320-7.2321 108.23-82.91 218.92-174.04 320-139.84 116.88 39.752 203.33 171.52 320 204.99 102.62 29.255 210.62-68.68 320-150.07" stroke="#EC1846"/>
			<path d="m0 1476.9c97.417-72.407 221.96-67.804 320 7.2321 108.23 82.91 218.92 174.04 320 139.84 116.88-39.752 203.33-171.52 320-204.99 102.62-29.255 210.62 68.68 320 150.07 97.417 72.407 221.96 67.804 320-7.2321 108.23-82.91 218.92-174.04 320-139.84 116.88 39.752 203.33 171.52 320 204.99 102.62 29.255 210.62-68.68 320-150.07" stroke="#00A551"/>
			<path d="m0 1458.9c97.417-72.407 221.96-67.804 320 7.2321 108.23 82.91 218.92 174.04 320 139.84 116.88-39.752 203.33-171.52 320-204.99 102.62-29.255 210.62 68.68 320 150.07 97.417 72.407 221.96 67.804 320-7.2321 108.23-82.91 218.92-174.04 320-139.84 116.88 39.752 203.33 171.52 320 204.99 102.62 29.255 210.62-68.68 320-150.07" stroke="#EC1846"/>
			<path d="m0 1440.9c97.417-72.407 221.96-67.804 320 7.2321 108.23 82.91 218.92 174.04 320 139.84 116.88-39.752 203.33-171.52 320-204.99 102.62-29.255 210.62 68.68 320 150.07 97.417 72.407 221.96 67.804 320-7.2321 108.23-82.91 218.92-174.04 320-139.84 116.88 39.752 203.33 171.52 320 204.99 102.62 29.255 210.62-68.68 320-150.07" stroke="#007AC1"/>
			<path d="m0 1422.9c97.417-72.407 221.96-67.804 320 7.2321 108.23 82.91 218.92 174.04 320 139.84 116.88-39.752 203.33-171.52 320-204.99 102.62-29.255 210.62 68.68 320 150.07 97.417 72.407 221.96 67.804 320-7.2321 108.23-82.91 218.92-174.04 320-139.84 116.88 39.752 203.33 171.52 320 204.99 102.62 29.255 210.62-68.68 320-150.07" stroke="#9DCB3B"/>
			<path d="m0 1404.9c97.417-72.407 221.96-67.804 320 7.2321 108.23 82.91 218.92 174.04 320 139.84 116.88-39.752 203.33-171.52 320-204.99 102.62-29.255 210.62 68.68 320 150.07 97.417 72.407 221.96 67.804 320-7.2321 108.23-82.91 218.92-174.04 320-139.84 116.88 39.752 203.33 171.52 320 204.99 102.62 29.255 210.62-68.68 320-150.07" stroke="#EC027E"/>
			<path d="m0 1386.9c97.417-72.407 221.96-67.804 320 7.2321 108.23 82.91 218.92 174.04 320 139.84 116.88-39.752 203.33-171.52 320-204.99 102.62-29.255 210.62 68.68 320 150.07 97.417 72.407 221.96 67.804 320-7.2321 108.23-82.91 218.92-174.04 320-139.84 116.88 39.752 203.33 171.52 320 204.99 102.62 29.255 210.62-68.68 320-150.07" stroke="#F9A11B"/>
			<path d="m0 1368.9c97.417-72.407 221.96-67.804 320 7.2321 108.23 82.91 218.92 174.04 320 139.84 116.88-39.752 203.33-171.52 320-204.99 102.62-29.255 210.62 68.68 320 150.07 97.417 72.407 221.96 67.804 320-7.2321 108.23-82.91 218.92-174.04 320-139.84 116.88 39.752 203.33 171.52 320 204.99 102.62 29.255 210.62-68.68 320-150.07" stroke="#009ADE"/>
			<path d="m0 1350.9c97.417-72.407 221.96-67.804 320 7.2321 108.23 82.91 218.92 174.04 320 139.84 116.88-39.752 203.33-171.52 320-204.99 102.62-29.255 210.62 68.68 320 150.07 97.417 72.407 221.96 67.804 320-7.2321 108.23-82.91 218.92-174.04 320-139.84 116.88 39.752 203.33 171.52 320 204.99 102.62 29.255 210.62-68.68 320-150.07" stroke="#00A67A"/>
			<path d="m0 1332.9c97.417-72.407 221.96-67.804 320 7.2321 108.23 82.91 218.92 174.04 320 139.84 116.88-39.752 203.33-171.52 320-204.99 102.62-29.255 210.62 68.68 320 150.07 97.417 72.407 221.96 67.804 320-7.2321 108.23-82.91 218.92-174.04 320-139.84 116.88 39.752 203.33 171.52 320 204.99 102.62 29.255 210.62-68.68 320-150.07" stroke="#CE128B"/>
			<path d="m0 1314.9c97.417-72.407 221.96-67.804 320 7.2321 108.23 82.91 218.92 174.04 320 139.84 116.88-39.752 203.33-171.52 320-204.99 102.62-29.255 210.62 68.68 320 150.07 97.417 72.407 221.96 67.804 320-7.2321 108.23-82.91 218.92-174.04 320-139.84 116.88 39.752 203.33 171.52 320 204.99 102.62 29.255 210.62-68.68 320-150.07" stroke="#FFD700"/>
			<path d="m0 1296.9c97.417-72.407 221.96-67.804 320 7.2321 108.23 82.91 218.92 174.04 320 139.84 116.88-39.752 203.33-171.52 320-204.99 102.62-29.255 210.62 68.68 320 150.07 97.417 72.407 221.96 67.804 320-7.2321 108.23-82.91 218.92-174.04 320-139.84 116.88 39.752 203.33 171.52 320 204.99 102.62 29.255 210.62-68.68 320-150.07" stroke="#9DCB3B"/>
			<path d="m0 1278.9c97.417-72.407 221.96-67.804 320 7.2321 108.23 82.91 218.92 174.04 320 139.84 116.88-39.752 203.33-171.52 320-204.99 102.62-29.255 210.62 68.68 320 150.07 97.417 72.407 221.96 67.804 320-7.2321 108.23-82.91 218.92-174.04 320-139.84 116.88 39.752 203.33 171.52 320 204.99 102.62 29.255 210.62-68.68 320-150.07" stroke="#2E3191"/>
	</g>
</svg>
