<?xml version="1.0" encoding="utf-8"?>
<!-- Generator: Adobe Illustrator 18.0.0, SVG Export Plug-In . SVG Version: 6.00 Build 0)  -->
<!DOCTYPE svg PUBLIC "-//W3C//DTD SVG 1.1//EN" "http://www.w3.org/Graphics/SVG/1.1/DTD/svg11.dtd">
<svg version="1.1" id="Layer_1" xmlns="http://www.w3.org/2000/svg" xmlns:xlink="http://www.w3.org/1999/xlink" x="0px" y="0px"
	 width="841.9px" height="595.3px" viewBox="0 0 841.9 595.3" enable-background="new 0 0 841.9 595.3" xml:space="preserve">
<g>
	<linearGradient id="SVGID_1_" gradientUnits="userSpaceOnUse" x1="420.945" y1="514.5969" x2="420.945" y2="5.9808">
		<stop  offset="0" style="stop-color:#FFF1DB"/>
		<stop  offset="0.5" style="stop-color:#FDDECE"/>
		<stop  offset="0.5772" style="stop-color:#F3D9CF"/>
		<stop  offset="0.6995" style="stop-color:#DCCED1"/>
		<stop  offset="0.8506" style="stop-color:#B9BDD4"/>
		<stop  offset="1" style="stop-color:#8EAAD9"/>
	</linearGradient>
	<rect x="0" fill="url(#SVGID_1_)" width="841.9" height="595.3"/>
	<circle fill="#FFF8DF" cx="568.1" cy="241.6" r="33.4"/>
	<path opacity="0.6" fill="#FFFFFF" d="M548.3,175.4c0,0,32.5-20.4,43.6-6.1c0,0,13.1-14.4,36.6-6.1c0,0,3-18.2,13.6-19.7
		c10.6-1.5,26.5,12.1,26.5,12.1s-7.6-40.1,22.7-46.9c30.3-6.8,41.6,43.9,41.6,43.9s-3.8-22.7,18.9-22.7s18.9,41.6,18.9,41.6
		s17.4-9.1,27.2-7.6c9.8,1.5,32.5,11.4,32.5,11.4H548.3z"/>
	<path opacity="0.6" fill="#FFFFFF" d="M309.1,108.2c0,0-25.3-12.7-31.3-13.3s-14,6.7-14,6.7s-17.3-18-26.7-18s-16,8.7-16,8.7
		s-9.3-16-17.3-16s-17.3,12.1-17.3,12.1s-21.5-34.1-47.8-30.2c-25.1,3.7-22.2,34.7-22.2,34.7s-5.7-3.8-14.5-4.6
		s-10.2,12.6-10.2,12.6s-7.3-12-22.7,7.3H309.1z"/>
	<linearGradient id="SVGID_2_" gradientUnits="userSpaceOnUse" x1="403.11" y1="549" x2="403.11" y2="180">
		<stop  offset="0" style="stop-color:#FFF1DB"/>
		<stop  offset="0.3309" style="stop-color:#FDDECE"/>
		<stop  offset="0.4342" style="stop-color:#F3D9CF"/>
		<stop  offset="0.5978" style="stop-color:#DCCED1"/>
		<stop  offset="0.8001" style="stop-color:#B9BDD4"/>
		<stop  offset="1" style="stop-color:#8EAAD9"/>
	</linearGradient>
	<path fill="url(#SVGID_2_)" d="M239.1,277.5l63-43.5l25.5-6l38.5-25l34,10l28.9-34.2l12,4.2l34.1-21l15.7,11l10,28l39.3,27l27,45.5
		c0,0,0,62,0,64.3s-328,0-328,0V277.5z"/>
	<path opacity="0.6" fill="#FFFFFF" d="M167.8,273.6c0,0,16-14.7,31.3-4c0,0,16-27.3,36-13.3c0,0,6-46,41.9-37.3
		c28,6.7,44.7,42.7,44.7,42.7s8-10,14.7-8.7c6.7,1.3,12,15.3,12,15.3s12-18,47.3,5.3H167.8z"/>
	<path opacity="0.6" fill="#FFFFFF" d="M637.2,85.7c0,0-16-14.7-31.3-4c0,0-16-27.3-36-13.3c0,0-6-46-41.9-37.3
		c-28,6.7-44.7,42.7-44.7,42.7s-8-10-14.7-8.7c-6.7,1.3-12,15.3-12,15.3s-12-18-47.3,5.3H637.2z"/>
	<path fill="#627766" d="M398.8,308l47.3-25l44.7,12.5l57.3-51.5l19,10c0,0,53-23,61-26s59-60,59-60l19,7l68-26l67.8,5v441.3H0V139
		l94.1,15l67,70l28,1l89.9,69l24.1-2l36,11l55.3,5H398.8z"/>
	<path fill="#4D655C" d="M94.1,154l58,104.5l88,93.5h31c0,0-36-20-40-22s-70-106-70-106L94.1,154z"/>
	<polygon fill="#4D655C" points="189.1,225 238.1,286.5 302.1,334 285.1,308 279,294 	"/>
	<polygon fill="#3A5048" points="137.4,379 141.4,368.3 144.1,383.7 150.1,371 150.1,385.7 157.1,377 157.1,390.7 161.4,383.3 
		161.4,390.7 171.8,379.5 169.4,399 178.8,390 178.8,396.7 186.1,391.7 182.6,407 189.1,400.7 190.2,409 195.1,401.3 193.7,414.3 
		182.6,410.7 	"/>
	<polygon fill="#3A5048" points="473.4,384 476.1,361.3 480.1,380 483.8,365.3 487.2,376.6 493.4,352 496.1,365.7 498.1,359 
		503.4,365 509.4,352 512.1,364.7 518.1,347.7 523.2,359.7 528.1,352 530.4,365.8 	"/>
	<polygon fill="#4D655C" points="303.1,292 327.7,312 352.1,312 339.1,303 	"/>
	<path fill="#4D655C" d="M0,178.8L62.1,329l135,87.5h-49L136.3,434c0,0-77.2-70-77.2-74S0,211,0,211V178.8z"/>
	<polygon fill="#4D655C" points="774.1,149 699.1,253 549.1,367.1 429,398 554.4,352 688.1,225 706.1,175 	"/>
	<polygon fill="#4D655C" points="628.1,228 585.1,273.5 498.1,327 567.1,254 	"/>
	<polygon fill="#4D655C" points="490.8,295.5 447.1,334 352.1,380 341.1,367.1 441,327 	"/>
	<polygon fill="#4D655C" points="446.1,283 412.1,312 378.1,322.3 387.1,312 398.8,308 	"/>
	<polygon fill="#8D9C89" points="0,509.2 115.1,479 136.3,434 148.1,416.5 197.1,416.5 219.1,380 271.1,367.1 240.1,352 271.1,352 
		289.1,334 302.1,334 327.7,312 352.1,312 394.4,308 387.1,312 382.1,321.7 364.4,324.3 360.8,337.8 364.1,347.7 343.4,373 
		361.1,386.3 416,394 429,414.7 397.4,463.3 496.4,512 500.8,538 458.1,595.3 0,595.3 	"/>
	<polygon fill="#4D655C" points="841.9,241.6 743.7,380 628.1,475.6 523.2,530.9 628.1,518.3 774.1,380 841.9,259.1 	"/>
	<path fill="#E6E7E8" d="M394.4,308c0,0-7-0.3-13.3,9.3c-3.5,5.4-18-0.7-25,10.7c-5.8,9.4,7,14-14,26s-24,39,24.5,39
		s63.5,24,46.5,32s-75,40.2-14,58.1c61,17.9,91,42.3,57,56.1c-34,13.8-67,26.4-67,56.1h118c0,0-7-19.3,24-34.3s31-46,0-65
		s-98-28-102-40s21-21,21-53s-96-21-96-31s18-16,18-29s-9.7-19.3,4.7-17.3c14.3,2,3.3-13,22-17.7H394.4z"/>
	<polygon fill="#3A5048" points="0,595.3 0,539.2 44.1,424 58.1,563 98.6,465 113.1,568 138.1,503 151.1,562 197.1,462 206.1,571 
		250.4,492 259.1,589 294.1,522 302.1,590 320.1,559 327.6,595.3 	"/>
	<polygon fill="#3A5048" points="841.9,542.6 826.7,503 813.7,562 767.7,462 758.7,571 714.4,492 705.7,589 670.7,522 662.7,590 
		644.7,559 637.2,595.3 841.9,595.3 	"/>
</g>
</svg>
